<svg width="146" height="55" fill="none" xmlns="http://www.w3.org/2000/svg"><path d="M42.983 12.13l1.32 29.554h-6.217l-.46-11.274-14.718 21.95-6.389-20.603L6.741 55H0l17.348-41.24 7.61 24.472L42.984 12.13z" fill="#000"/><path d="M29.078 0c15.028 0 27.21 12.206 27.21 27.262 0 11.393-6.974 21.154-16.88 25.23v-3.853c7.914-3.846 13.37-11.973 13.37-21.377 0-13.113-10.611-23.744-23.7-23.744-13.09 0-23.7 10.63-23.7 23.744a23.67 23.67 0 004.966 14.545h-2.4v2.63a27.181 27.181 0 01-6.077-17.174C1.867 12.205 14.05 0 29.077 0z" fill="#000"/><path fill-rule="evenodd" clip-rule="evenodd" d="M39.706 48.522l-1.649-.828h-3.602v5.514h3.602l1.649-.848v-3.838z" fill="#000"/><path d="M34.455 48.522h-3.584V49.9h3.584v-1.378zm0 2.481h-3.584v1.378h3.584v-1.378zM72.086 22.32l-1.192-2.696-.544 2.695-1.763 8.89h-2.876L69.65 12.16h.31l5.236 10.288 1.555 3.447 1.554-3.447 5.131-10.288h.286l4.094 19.047h-2.85l-1.918-8.889-.57-2.695-1.037 2.695-4.613 8.89h-.155l-4.587-8.89zm23.175 9.147a5.955 5.955 0 01-2.967-.764c-.907-.51-1.633-1.235-2.177-2.177s-.817-2.043-.817-3.304c0-1.244.238-2.332.713-3.265a5.213 5.213 0 012.034-2.177c.882-.518 1.918-.778 3.11-.778.691 0 1.34.121 1.944.363.605.242 1.114.54 1.529.894.415.354.69.704.83 1.05l.051-1.996h2.669v11.895h-2.643l-.052-2.099c-.294.622-.83 1.17-1.607 1.646-.777.475-1.65.712-2.617.712zm.466-2.332c.985 0 1.814-.341 2.488-1.024.674-.682 1.01-1.576 1.01-2.682v-.181c0-.743-.155-1.408-.466-1.996a3.483 3.483 0 00-1.27-1.373 3.308 3.308 0 00-1.762-.492c-1.105 0-1.96.358-2.565 1.075s-.907 1.646-.907 2.786c0 1.157.298 2.095.894 2.812.596.717 1.455 1.075 2.578 1.075zm9.533-9.822h2.799v2.333c.276-.795.725-1.434 1.347-1.918a3.368 3.368 0 012.125-.726c.553 0 .933.052 1.14.156l-.388 2.825c-.156-.104-.493-.156-1.011-.156-.812 0-1.551.26-2.216.777-.665.519-.997 1.348-.997 2.488v6.116h-2.799V19.313zm8.89 0h3.188l2.565 5.365.829 2.15.83-2.15 2.539-5.365h3.11l-6.245 11.895h-.545l-6.271-11.895zm20.162 12.154c-1.417 0-2.6-.28-3.551-.842-.95-.561-1.649-1.313-2.099-2.255-.449-.941-.673-1.973-.673-3.096 0-1.262.263-2.367.79-3.317a5.453 5.453 0 012.19-2.19c.933-.51 1.987-.765 3.161-.765 1.832 0 3.192.506 4.082 1.516.89 1.011 1.335 2.432 1.335 4.263 0 .467-.026.95-.078 1.452h-8.552c.19 1.053.566 1.814 1.127 2.28.562.467 1.344.7 2.346.7.829 0 1.511-.07 2.047-.207a6.568 6.568 0 001.477-.57l.855 1.995c-.432.276-1.019.518-1.762.725-.743.208-1.641.311-2.695.311zm2.514-7.178c.017-1.071-.216-1.827-.7-2.268-.484-.44-1.175-.66-2.073-.66-1.814 0-2.86.976-3.136 2.928h5.909zm5.882-12.128h2.773v19.047h-2.773V12.161zM65.434 36.925h1.91c.473 0 .828.146 1.067.438.238.292.357.646.357 1.063 0 .417-.119.77-.357 1.06-.239.289-.594.434-1.067.434h-1.257v1.792h-.653v-4.787zm1.903.605h-1.25v1.785h1.215c.274 0 .479-.087.615-.26a.986.986 0 00.205-.63c0-.245-.066-.455-.198-.631s-.327-.264-.587-.264zm2.573 1.8c0-.686.234-1.268.702-1.745a2.311 2.311 0 011.716-.715c.681 0 1.257.238 1.727.715a2.39 2.39 0 01.705 1.744c0 .68-.235 1.26-.705 1.737a2.33 2.33 0 01-1.727.715 2.311 2.311 0 01-1.716-.715 2.389 2.389 0 01-.701-1.737zm1.16-1.3a1.81 1.81 0 00-.513 1.3c0 .509.17.94.51 1.295.34.354.761.531 1.261.531.5 0 .922-.177 1.265-.531.342-.355.514-.786.514-1.296s-.172-.942-.514-1.3a1.685 1.685 0 00-1.265-.534c-.495 0-.915.178-1.257.535zm9.98-1.105h.695l-1.619 4.787h-.563l-.847-2.987-.841 2.987h-.563l-1.618-4.787h.694l1.202 3.745.882-3.099h.494l.882 3.099 1.202-3.745zm2.031 0h2.835v.605h-2.188v1.528h1.91v.605h-1.91v1.445h2.258v.604H83.08v-4.787zm6.513 2.974l1.278 1.813h-.785l-1.236-1.792h-.612v1.792h-.653v-4.787h1.841c.473 0 .827.146 1.063.438.236.292.355.646.355 1.063 0 .389-.104.722-.31 1-.206.278-.52.436-.941.473zm-.188-2.37H88.24v1.786h1.14c.273 0 .474-.085.604-.257.13-.171.194-.382.194-.632a1.05 1.05 0 00-.19-.632c-.128-.176-.321-.264-.58-.264zm9.17-.027l-.466.43a1.684 1.684 0 00-1.153-.444c-.496 0-.915.18-1.258.538a1.818 1.818 0 00-.514 1.303c0 .51.172.943.514 1.3a1.68 1.68 0 001.258.534c.435 0 .794-.117 1.077-.35.282-.235.433-.548.451-.942h-1.361v-.563h2.098c0 .82-.202 1.437-.605 1.852-.403.414-.956.622-1.66.622a2.31 2.31 0 01-1.716-.716 2.389 2.389 0 01-.702-1.737c0-.685.234-1.267.702-1.744a2.31 2.31 0 011.716-.715c.625 0 1.165.21 1.619.632zm4.115 2.397l1.279 1.813h-.785l-1.237-1.792h-.611v1.792h-.654v-4.787h1.842c.472 0 .826.146 1.062.438.237.292.355.646.355 1.063 0 .389-.103.722-.309 1-.206.278-.52.436-.942.473zm-.187-2.37h-1.167v1.786h1.139c.273 0 .475-.085.604-.257.13-.171.195-.382.195-.632a1.05 1.05 0 00-.191-.632c-.128-.176-.321-.264-.58-.264zm2.747 1.8a2.4 2.4 0 01.701-1.744 2.312 2.312 0 011.716-.715c.681 0 1.257.238 1.727.715.47.477.705 1.059.705 1.744 0 .68-.235 1.26-.705 1.737a2.331 2.331 0 01-1.727.715 2.312 2.312 0 01-1.716-.715 2.391 2.391 0 01-.701-1.737zm1.16-1.3c-.343.358-.514.79-.514 1.3s.17.941.51 1.296a1.68 1.68 0 001.261.531 1.69 1.69 0 001.265-.531c.343-.355.514-.786.514-1.296s-.171-.942-.514-1.3a1.685 1.685 0 00-1.265-.534c-.495 0-.914.178-1.257.535zm6.186 2.822c.213.203.472.305.778.305.306 0 .565-.102.778-.305a1.04 1.04 0 00.32-.785v-3.14h.653v3.14c0 .509-.17.922-.511 1.24-.34.317-.754.476-1.24.476s-.9-.16-1.24-.476c-.341-.318-.511-.731-.511-1.24v-3.14h.653v3.14c0 .32.107.58.32.785zm6.276-3.926c.473 0 .828.146 1.067.438.238.292.357.646.357 1.063 0 .417-.119.77-.357 1.06-.239.289-.594.434-1.067.434h-1.257v1.792h-.653v-4.787h1.91zm-.007.605h-1.25v1.785h1.216c.273 0 .478-.087.614-.26a.984.984 0 00.205-.63c0-.245-.066-.455-.198-.631s-.327-.264-.587-.264z" fill="#000"/></svg>